<svg preserveAspectRatio="xMidYMid meet" overflow="visible" style="display: block;" width="16" height="16" viewBox="0 0 16 16" fill="none" xmlns="http://www.w3.org/2000/svg">
<g id="Lui-icon-help">
<path id="Union" d="M7.99967 0.666667C12.0497 0.666667 15.3335 3.94974 15.3337 7.99967C15.3337 12.0498 12.0498 15.3337 7.99967 15.3337C3.94974 15.3335 0.666667 12.0497 0.666667 7.99967C0.666843 3.94984 3.94984 0.666843 7.99967 0.666667ZM7.99967 1.99967C4.68622 1.99985 1.99985 4.68622 1.99967 7.99967C1.99967 11.3133 4.68612 13.9995 7.99967 13.9997C11.3134 13.9997 13.9997 11.3134 13.9997 7.99967C13.9995 4.68612 11.3133 1.99967 7.99967 1.99967ZM8.00553 11.3337C8.19285 11.3337 8.34694 11.3896 8.47917 11.5241C8.60034 11.6473 8.66667 11.8043 8.66667 11.9948C8.66658 12.1963 8.6003 12.3531 8.47917 12.4762C8.34696 12.5994 8.18178 12.6667 8.00553 12.6667C7.80726 12.6667 7.65309 12.5994 7.5319 12.4762C7.39976 12.3419 7.33375 12.1851 7.33366 11.9948C7.33366 11.8043 7.39968 11.6473 7.5319 11.5241C7.65311 11.3896 7.80719 11.3337 8.00553 11.3337ZM7.99967 3.99967C9.45339 3.99967 10.6665 5.05593 10.6667 6.40788C10.6667 7.16875 10.1462 7.89445 9.17936 8.64909C8.88528 8.87879 8.7024 9.22 8.67155 9.58854L8.66667 9.69987V9.99967C8.66667 10.3679 8.36786 10.6667 7.99967 10.6667C7.65794 10.6665 7.37607 10.4092 7.33757 10.0778L7.33366 9.99967V9.69987C7.33365 8.87855 7.7116 8.10268 8.35905 7.59733C9.03297 7.07132 9.33366 6.65294 9.33366 6.40788C9.33345 5.83647 8.75485 5.33366 7.99967 5.33366C7.28231 5.3338 6.72456 5.78758 6.67057 6.32292L6.66667 6.40788C6.66667 6.77607 6.36786 7.07487 5.99967 7.07487C5.63163 7.07469 5.33366 6.77596 5.33366 6.40788C5.33384 5.05603 6.5461 3.99983 7.99967 3.99967Z" fill="#BABEC7"/>
</g>
</svg>
